<svg xmlns="http://www.w3.org/2000/svg" xmlns:xlink="http://www.w3.org/1999/xlink" width="100" zoomAndPan="magnify" viewBox="0 0 75 224.249992" height="299" preserveAspectRatio="xMidYMid meet" version="1.0"><defs><g/></defs><g fill="rgb(0%, 0%, 0%)" fill-opacity="1"><g transform="translate(56.124765, 198.910124)"><g><path d="M -22.984375 -1.1875 C -22.171875 0.113281 -21.003906 0.796875 -19.484375 0.859375 C -17.972656 0.921875 -16.285156 0.367188 -14.421875 -0.796875 C -10.535156 -3.222656 -9.507812 -5.914062 -11.34375 -8.875 C -11.90625 -9.757812 -12.570312 -10.546875 -13.34375 -11.234375 C -14.113281 -11.921875 -14.941406 -12.578125 -15.828125 -13.203125 L -11.203125 -16.078125 C -9.398438 -14.859375 -7.835938 -13.1875 -6.515625 -11.0625 C -4.609375 -8.007812 -4.03125 -5.117188 -4.78125 -2.390625 C -5.539062 0.335938 -7.59375 2.742188 -10.9375 4.828125 C -13.03125 6.140625 -15.113281 6.894531 -17.1875 7.09375 C -19.269531 7.289062 -21.195312 6.914062 -22.96875 5.96875 C -24.75 5.019531 -26.265625 3.546875 -27.515625 1.546875 C -28.878906 -0.640625 -29.707031 -3.019531 -30 -5.59375 L -24.640625 -6.609375 C -24.523438 -5.640625 -24.351562 -4.707031 -24.125 -3.8125 C -23.90625 -2.925781 -23.523438 -2.050781 -22.984375 -1.1875 Z M -22.984375 -1.1875 "/></g></g></g><g fill="rgb(0%, 0%, 0%)" fill-opacity="1"><g transform="translate(45.493591, 182.170762)"><g><path d="M -5.546875 -12.65625 L -14.765625 -8.625 C -17.035156 -7.625 -17.875 -6.453125 -17.28125 -5.109375 C -16.863281 -4.148438 -16.15625 -3.617188 -15.15625 -3.515625 C -14.15625 -3.421875 -12.722656 -3.78125 -10.859375 -4.59375 L -3.4375 -7.84375 L -0.890625 -2.015625 L -24.109375 8.15625 L -26.65625 2.328125 L -23.359375 0.875 C -21.859375 0.21875 -20.117188 -0.445312 -18.140625 -1.125 L -18.265625 -1.390625 C -19.378906 -1.566406 -20.285156 -1.957031 -20.984375 -2.5625 C -21.679688 -3.164062 -22.25 -3.976562 -22.6875 -5 C -23.519531 -6.894531 -23.617188 -8.601562 -22.984375 -10.125 C -22.359375 -11.644531 -21.0625 -12.835938 -19.09375 -13.703125 L -8.109375 -18.515625 Z M -5.546875 -12.65625 "/></g></g></g><g fill="rgb(0%, 0%, 0%)" fill-opacity="1"><g transform="translate(37.180176, 163.36894)"><g><path d="M -3.8125 -13.71875 L -5.828125 -11.890625 L -5.796875 -11.765625 C -4.535156 -11.222656 -3.597656 -10.570312 -2.984375 -9.8125 C -2.378906 -9.0625 -1.890625 -8.007812 -1.515625 -6.65625 C -1.046875 -4.976562 -1.175781 -3.515625 -1.90625 -2.265625 C -2.644531 -1.023438 -3.929688 -0.148438 -5.765625 0.359375 C -7.648438 0.878906 -9.238281 0.609375 -10.53125 -0.453125 C -11.820312 -1.523438 -12.867188 -3.296875 -13.671875 -5.765625 L -14.609375 -8.6875 L -14.84375 -8.625 C -16.3125 -8.21875 -16.847656 -7.296875 -16.453125 -5.859375 C -16.085938 -4.554688 -15.191406 -3.03125 -13.765625 -1.28125 L -17.3125 1.625 C -18.945312 -0.144531 -20.207031 -2.613281 -21.09375 -5.78125 C -21.71875 -8.0625 -21.640625 -9.984375 -20.859375 -11.546875 C -20.078125 -13.117188 -18.675781 -14.1875 -16.65625 -14.75 L -4.984375 -17.984375 Z M -6.5625 -8.0625 C -6.769531 -8.800781 -7.179688 -9.363281 -7.796875 -9.75 C -8.421875 -10.144531 -9.109375 -10.238281 -9.859375 -10.03125 L -11.234375 -9.65625 L -10.78125 -8.265625 C -10.144531 -6.265625 -9.117188 -5.460938 -7.703125 -5.859375 C -6.617188 -6.160156 -6.238281 -6.894531 -6.5625 -8.0625 Z M -6.5625 -8.0625 "/></g></g></g><g fill="rgb(0%, 0%, 0%)" fill-opacity="1"><g transform="translate(31.923411, 145.108006)"><g><path d="M -1.78125 -13.734375 L -11.765625 -12.4375 C -12.984375 -12.28125 -13.878906 -11.984375 -14.453125 -11.546875 C -15.023438 -11.117188 -15.257812 -10.519531 -15.15625 -9.75 C -15.019531 -8.6875 -14.492188 -7.96875 -13.578125 -7.59375 C -12.660156 -7.226562 -11.171875 -7.179688 -9.109375 -7.453125 L -1.09375 -8.484375 L -0.28125 -2.1875 L -18.578125 0.171875 L -19.1875 -4.578125 L -17.03125 -5.65625 L -17.078125 -6.03125 C -18.023438 -6.457031 -18.769531 -7.117188 -19.3125 -8.015625 C -19.863281 -8.921875 -20.222656 -9.992188 -20.390625 -11.234375 C -20.648438 -13.253906 -20.265625 -14.898438 -19.234375 -16.171875 C -18.210938 -17.453125 -16.632812 -18.234375 -14.5 -18.515625 L -2.59375 -20.046875 Z M -1.78125 -13.734375 "/></g></g></g><g fill="rgb(0%, 0%, 0%)" fill-opacity="1"><g transform="translate(29.236613, 124.705215)"><g><path d="M -18.21875 -19.828125 L -15.140625 -19.796875 L -14.25 -17.265625 C -13.613281 -17.597656 -12.878906 -17.757812 -12.046875 -17.75 C -10.054688 -17.726562 -8.519531 -17.007812 -7.4375 -15.59375 C -6.363281 -14.1875 -5.84375 -12.097656 -5.875 -9.328125 C -5.882812 -8.640625 -5.929688 -8.101562 -6.015625 -7.71875 C -5.734375 -7.550781 -5.46875 -7.46875 -5.21875 -7.46875 C -4.90625 -7.46875 -4.660156 -7.71875 -4.484375 -8.21875 C -4.304688 -8.726562 -4.210938 -9.398438 -4.203125 -10.234375 L -4.171875 -13.296875 C -4.117188 -17.429688 -2.351562 -19.476562 1.125 -19.4375 C 3.375 -19.414062 5.109375 -18.4375 6.328125 -16.5 C 7.554688 -14.570312 8.148438 -11.875 8.109375 -8.40625 C 8.078125 -5.789062 7.613281 -3.78125 6.71875 -2.375 C 5.832031 -0.96875 4.570312 -0.273438 2.9375 -0.296875 C 0.726562 -0.316406 -0.675781 -1.703125 -1.28125 -4.453125 C -1.519531 -3.878906 -1.910156 -3.382812 -2.453125 -2.96875 C -2.992188 -2.5625 -3.523438 -2.363281 -4.046875 -2.375 C -4.617188 -2.382812 -5.125 -2.550781 -5.5625 -2.875 C -6 -3.195312 -6.515625 -3.851562 -7.109375 -4.84375 C -7.535156 -3.90625 -8.203125 -3.164062 -9.109375 -2.625 C -10.023438 -2.082031 -11.128906 -1.816406 -12.421875 -1.828125 C -14.429688 -1.859375 -15.984375 -2.5625 -17.078125 -3.9375 C -18.171875 -5.320312 -18.703125 -7.285156 -18.671875 -9.828125 C -18.660156 -10.160156 -18.613281 -10.738281 -18.53125 -11.5625 C -18.445312 -12.394531 -18.367188 -13.003906 -18.296875 -13.390625 Z M 2.359375 -5.671875 C 2.878906 -5.671875 3.304688 -5.945312 3.640625 -6.5 C 3.972656 -7.0625 4.144531 -7.816406 4.15625 -8.765625 C 4.164062 -10.304688 3.984375 -11.539062 3.609375 -12.46875 C 3.234375 -13.40625 2.738281 -13.878906 2.125 -13.890625 C 1.632812 -13.890625 1.285156 -13.609375 1.078125 -13.046875 C 0.878906 -12.492188 0.773438 -11.691406 0.765625 -10.640625 L 0.734375 -8.140625 C 0.722656 -7.460938 0.875 -6.882812 1.1875 -6.40625 C 1.5 -5.925781 1.890625 -5.679688 2.359375 -5.671875 Z M -12.3125 -7.84375 C -10.425781 -7.820312 -9.476562 -8.46875 -9.46875 -9.78125 C -9.457031 -10.394531 -9.679688 -10.867188 -10.140625 -11.203125 C -10.609375 -11.535156 -11.304688 -11.707031 -12.234375 -11.71875 C -14.148438 -11.738281 -15.117188 -11.113281 -15.140625 -9.84375 C -15.148438 -8.53125 -14.207031 -7.863281 -12.3125 -7.84375 Z M -12.3125 -7.84375 "/></g></g></g><g fill="rgb(0%, 0%, 0%)" fill-opacity="1"><g transform="translate(29.325479, 106.185406)"><g><path d="M 1.953125 -10.9375 C 1.503906 -7.90625 0.347656 -5.664062 -1.515625 -4.21875 C -3.390625 -2.78125 -5.820312 -2.28125 -8.8125 -2.71875 C -11.894531 -3.175781 -14.144531 -4.300781 -15.5625 -6.09375 C -16.976562 -7.894531 -17.472656 -10.238281 -17.046875 -13.125 C -16.640625 -15.875 -15.609375 -17.894531 -13.953125 -19.1875 C -12.304688 -20.476562 -10.132812 -20.921875 -7.4375 -20.515625 L -4.640625 -20.109375 L -6.296875 -8.84375 C -5.265625 -8.75 -4.40625 -9.003906 -3.71875 -9.609375 C -3.03125 -10.222656 -2.597656 -11.140625 -2.421875 -12.359375 C -2.265625 -13.460938 -2.222656 -14.492188 -2.296875 -15.453125 C -2.367188 -16.421875 -2.578125 -17.484375 -2.921875 -18.640625 L 1.609375 -17.984375 C 1.960938 -16.910156 2.160156 -15.832031 2.203125 -14.75 C 2.242188 -13.675781 2.160156 -12.40625 1.953125 -10.9375 Z M -12.734375 -12.734375 C -12.835938 -11.984375 -12.691406 -11.320312 -12.296875 -10.75 C -11.898438 -10.1875 -11.210938 -9.789062 -10.234375 -9.5625 L -9.4375 -14.96875 C -10.320312 -15.082031 -11.0625 -14.9375 -11.65625 -14.53125 C -12.25 -14.132812 -12.609375 -13.535156 -12.734375 -12.734375 Z M -12.734375 -12.734375 "/></g></g></g><g fill="rgb(0%, 0%, 0%)" fill-opacity="1"><g transform="translate(33.640265, 79.836417)"><g><path d="M -3.78125 -25.671875 C -0.0625 -24.296875 2.425781 -22.207031 3.6875 -19.40625 C 4.957031 -16.613281 4.910156 -13.363281 3.546875 -9.65625 L 0.890625 -2.421875 L -21.46875 -10.640625 L -18.625 -18.375 C -17.3125 -21.957031 -15.378906 -24.382812 -12.828125 -25.65625 C -10.273438 -26.9375 -7.257812 -26.941406 -3.78125 -25.671875 Z M -5.875 -19.328125 C -7.914062 -20.078125 -9.582031 -20.226562 -10.875 -19.78125 C -12.175781 -19.332031 -13.128906 -18.28125 -13.734375 -16.625 L -14.375 -14.875 L -1.84375 -10.28125 L -1.359375 -11.625 C -0.679688 -13.457031 -0.71875 -15 -1.46875 -16.25 C -2.21875 -17.5 -3.6875 -18.523438 -5.875 -19.328125 Z M -5.875 -19.328125 "/></g></g></g><g fill="rgb(0%, 0%, 0%)" fill-opacity="1"><g transform="translate(41.350882, 58.651734)"><g><path d="M 7.4375 -13.421875 L 5.046875 -13.828125 L 4.859375 -13.5 C 5.335938 -12.632812 5.539062 -11.675781 5.46875 -10.625 C 5.40625 -9.570312 5.066406 -8.484375 4.453125 -7.359375 C 3.460938 -5.578125 2.179688 -4.476562 0.609375 -4.0625 C -0.960938 -3.65625 -2.691406 -3.976562 -4.578125 -5.03125 L -15.09375 -10.859375 L -12 -16.40625 L -3.1875 -11.515625 C -2.125 -10.929688 -1.238281 -10.640625 -0.53125 -10.640625 C 0.175781 -10.640625 0.71875 -10.984375 1.09375 -11.671875 C 1.625 -12.628906 1.625 -13.519531 1.09375 -14.34375 C 0.570312 -15.164062 -0.585938 -16.078125 -2.390625 -17.078125 L -9.453125 -21 L -6.359375 -26.578125 L 9.78125 -17.625 Z M 7.4375 -13.421875 "/></g></g></g><g fill="rgb(0%, 0%, 0%)" fill-opacity="1"><g transform="translate(51.266211, 40.636486)"><g><path d="M 6.96875 -8.65625 C 5.113281 -6.207031 3.019531 -4.800781 0.6875 -4.4375 C -1.644531 -4.070312 -4.015625 -4.800781 -6.421875 -6.625 C -8.898438 -8.5 -10.328125 -10.566406 -10.703125 -12.828125 C -11.078125 -15.085938 -10.382812 -17.378906 -8.625 -19.703125 C -6.945312 -21.921875 -5.078125 -23.195312 -3.015625 -23.53125 C -0.953125 -23.875 1.164062 -23.222656 3.34375 -21.578125 L 5.59375 -19.859375 L -1.28125 -10.765625 C -0.425781 -10.191406 0.445312 -10.007812 1.34375 -10.21875 C 2.25 -10.425781 3.078125 -11.019531 3.828125 -12 C 4.492188 -12.882812 5.023438 -13.769531 5.421875 -14.65625 C 5.828125 -15.539062 6.15625 -16.570312 6.40625 -17.75 L 10.046875 -14.984375 C 9.847656 -13.878906 9.507812 -12.84375 9.03125 -11.875 C 8.550781 -10.90625 7.863281 -9.832031 6.96875 -8.65625 Z M -5.046875 -17.28125 C -5.503906 -16.675781 -5.691406 -16.03125 -5.609375 -15.34375 C -5.535156 -14.65625 -5.125 -13.976562 -4.375 -13.3125 L -1.078125 -17.671875 C -1.796875 -18.191406 -2.515625 -18.414062 -3.234375 -18.34375 C -3.953125 -18.28125 -4.554688 -17.925781 -5.046875 -17.28125 Z M -5.046875 -17.28125 "/></g></g></g></svg>